<?xml version="1.0" encoding="utf-8"?>
<!-- Generator: Adobe Illustrator 15.1.0, SVG Export Plug-In . SVG Version: 6.00 Build 0)  -->
<!DOCTYPE svg PUBLIC "-//W3C//DTD SVG 1.1//EN" "http://www.w3.org/Graphics/SVG/1.1/DTD/svg11.dtd">
<svg version="1.1"
	 id="IDPDJR_Curriculum_Vitae_Template__x28_Esch_x2C__Ruben_Van_x29__2016-03-08_Version_Template_Part_Bottom_Left_Brown_Final_AI__x28_CS5_x29___x5B_41858272_x5D_"
	 xmlns="http://www.w3.org/2000/svg" xmlns:xlink="http://www.w3.org/1999/xlink" x="0px" y="0px" width="350px" height="175px"
	 viewBox="0 0 350 175" enable-background="new 0 0 350 175" xml:space="preserve">
<rect id="Background" x="0" fill="#24201D" width="350" height="125"/>
<circle id="Background_Bottom_Part_2_" fill="#BBAC91" cx="325" cy="150" r="25"/>
<polygon id="Background_Bottom_Part_3_" fill="#BBAC91" points="325,150 325,175.181 0,175.181 0,125 350,125 350,150 "/>
<g id="E_1_" display="none">
	
		<text transform="matrix(0.9869 0 0 1 260.6309 125)" display="inline" fill="#FFCE34" font-family="'Arial-BoldMT'" font-size="146.1982">E</text>
</g>
<g id="A_1_" display="none">
	
		<text transform="matrix(0.9869 0 0 1 167.5444 125.0078)" display="inline" fill="#FFCE34" font-family="'Arial-BoldMT'" font-size="146.1982">A</text>
</g>
<g id="T_2_" display="none">
	
		<text transform="matrix(0.9869 0 0 1 112.9897 125.0078)" display="inline" fill="#FFCE34" font-family="'Arial-BoldMT'" font-size="146.1982">T</text>
</g>
<g id="I_3_" display="none">
	
		<text transform="matrix(0.9869 0 0 1 85.5776 125.0195)" display="inline" fill="#FFCE34" font-family="'Arial-BoldMT'" font-size="146.1982">I</text>
</g>
<g id="V_1_" display="none">
	
		<text transform="matrix(0.9869 0 0 1 -4.882813e-004 125.0195)" display="inline" fill="#FFCE34" font-family="'Arial-BoldMT'" font-size="146.1982">V</text>
</g>
<path id="E_Outline" fill="#BBAC91" d="M271.128,125V20.349h76.58v17.703h-55.727v23.201h51.852v17.632h-51.852v28.483h57.699V125
	H271.128z"/>
<path id="A_Outline" fill="#BBAC91" d="M271.177,125.008h-22.685l-9.018-23.771H198.19l-8.524,23.771h-22.122l40.228-104.651h22.051
	L271.177,125.008z M232.782,83.604l-14.231-38.834l-13.949,38.834H232.782z"/>
<path id="T_Outline" fill="#BBAC91" d="M146.736,125.008V38.06h-30.646V20.356h82.075V38.06h-30.576v86.948H146.736z"/>
<path id="I_Outline_1_" fill="#BBAC91" d="M95.441,125.02V20.368h20.853V125.02H95.441z"/>
<path id="V_Outline" fill="#BBAC91" d="M36.845,125.02L-0.071,20.368h22.615l26.137,77.453l25.292-77.453h22.122L59.107,125.02
	H36.845z"/>
</svg>
