<?xml version="1.0" encoding="utf-8"?>
<!-- Generator: Adobe Illustrator 15.1.0, SVG Export Plug-In . SVG Version: 6.00 Build 0)  -->
<!DOCTYPE svg PUBLIC "-//W3C//DTD SVG 1.1//EN" "http://www.w3.org/Graphics/SVG/1.1/DTD/svg11.dtd">
<svg version="1.1"
	 id="IDPDJR_Curriculum_Vitae_Template__x28_Esch_x2C__Ruben_Van_x29__2016-03-08_Version_Template_Part_Bottom_Right_Brown_Final_AI__x28_CS5_x29___x5B_41858272_x5D_"
	 xmlns="http://www.w3.org/2000/svg" xmlns:xlink="http://www.w3.org/1999/xlink" x="0px" y="0px" width="575px" height="175px"
	 viewBox="0 0 575 175" enable-background="new 0 0 575 175" xml:space="preserve">
<rect id="Background" x="0" fill="#24201D" width="575" height="125"/>
<polygon id="Background_Bottom_Part_1_" fill="#BBAC91" points="550,150 550,175 0,175 0,125 575,125 575,149.819 "/>
<path id="Background_Bottom_Part" fill="#BBAC91" d="M575,149.819c0,13.807-11.193,25-25,25s-25-11.193-25-25
	S575,136.013,575,149.819z"/>
<g id="M_2_" display="none">
	
		<text transform="matrix(0.9869 0 0 1 496.2188 125.0098)" display="inline" fill="#666766" font-family="'Arial-BoldMT'" font-size="104.6886">M</text>
</g>
<g id="U_6_" display="none">
	
		<text transform="matrix(0.9869 0 0 1 437.1221 124.9238)" display="inline" fill="#666766" font-family="'Arial-BoldMT'" font-size="104.6886">U</text>
</g>
<g id="L_2_" display="none">
	
		<text transform="matrix(0.9869 0 0 1 384.5332 124.79)" display="inline" fill="#666766" font-family="'Arial-BoldMT'" font-size="105.4086">L</text>
</g>
<g id="U_2_" display="none">
	
		<text transform="matrix(0.9869 0 0 1 326.0615 124.9473)" display="inline" fill="#666766" font-family="'Arial-BoldMT'" font-size="104.6886">U</text>
</g>
<g id="C_4_" display="none">
	
		<text transform="matrix(0.9869 0 0 1 259.332 124.9395)" display="inline" fill="#666766" font-family="'Arial-BoldMT'" font-size="104.6886">C</text>
</g>
<g id="I_4_" display="none">
	
		<text transform="matrix(0.9869 0 0 1 244.6504 124.9395)" display="inline" fill="#666766" font-family="'Arial-BoldMT'" font-size="104.6886">I</text>
</g>
<g id="R_2_" display="none">
	
		<text transform="matrix(0.9869 0 0 1 173.8916 125.7656)" display="inline" fill="#666766" font-family="'Arial-BoldMT'" font-size="104.6886">R</text>
</g>
<g id="R_1_" display="none">
	
		<text transform="matrix(0.9869 0 0 1 115.3477 124.9395)" display="inline" fill="#666766" font-family="'Arial-BoldMT'" font-size="104.6886">R</text>
</g>
<g id="U_1_" display="none">
	
		<text transform="matrix(0.9869 0 0 1 56.7266 124.9473)" display="inline" fill="#666766" font-family="'Arial-BoldMT'" font-size="104.6886">U</text>
</g>
<g id="C_1_" display="none">
	
		<text transform="matrix(0.9869 0 0 1 -4.5527 124.9473)" display="inline" fill="#666766" font-family="'Arial-BoldMT'" font-size="104.6886">C</text>
</g>
<path id="M_Outline" fill="#BBAC91" d="M503.533,125.01V50.071h22.349l13.419,51.118l13.269-51.118h22.398v74.938h-13.873V66.021
	l-14.681,58.989h-14.377l-14.63-58.989v58.989H503.533z"/>
<path id="U_Outline_2_" fill="#BBAC91" d="M444.538,49.985h14.933v40.588c0,6.44,0.185,10.615,0.555,12.523
	c0.639,3.067,2.16,5.529,4.565,7.387c2.404,1.857,5.692,2.785,9.862,2.785c4.238,0,7.433-0.877,9.585-2.632s3.447-3.911,3.885-6.467
	c0.437-2.556,0.656-6.799,0.656-12.729V49.985h14.933v39.36c0,8.997-0.404,15.354-1.211,19.067c-0.808,3.715-2.296,6.85-4.465,9.405
	s-5.07,4.593-8.702,6.108c-3.632,1.517-8.374,2.275-14.227,2.275c-7.063,0-12.419-0.827-16.067-2.479
	c-3.649-1.652-6.533-3.8-8.651-6.44c-2.119-2.641-3.516-5.41-4.188-8.307c-0.976-4.294-1.463-10.633-1.463-19.017V49.985z"/>
<path id="L_Outline" fill="#BBAC91" d="M392.508,124.79V49.954h15.035v62.123h37.386v12.713H392.508z"/>
<path id="U_Outline_1_" fill="#BBAC91" d="M333.478,50.009h14.933v40.588c0,6.44,0.185,10.615,0.555,12.523
	c0.639,3.067,2.16,5.529,4.565,7.387c2.404,1.857,5.692,2.785,9.862,2.785c4.238,0,7.433-0.877,9.585-2.632s3.447-3.911,3.885-6.467
	c0.437-2.556,0.656-6.799,0.656-12.729V50.009h14.933v39.36c0,8.997-0.404,15.354-1.211,19.067c-0.808,3.715-2.296,6.85-4.465,9.405
	s-5.07,4.593-8.702,6.108c-3.632,1.517-8.374,2.275-14.227,2.275c-7.063,0-12.419-0.827-16.067-2.479
	c-3.649-1.652-6.533-3.8-8.651-6.44c-2.119-2.641-3.516-5.41-4.188-8.307c-0.976-4.294-1.463-10.633-1.463-19.017V50.009z"/>
<path id="C_Outline_1_" fill="#BBAC91" d="M314.169,97.387l14.479,4.652c-2.22,8.179-5.911,14.254-11.073,18.223
	c-5.163,3.971-11.713,5.956-19.649,5.956c-9.821,0-17.893-3.399-24.215-10.198c-6.323-6.799-9.484-16.094-9.484-27.885
	c0-12.473,3.178-22.159,9.534-29.061c6.356-6.9,14.714-10.351,25.073-10.351c9.047,0,16.396,2.709,22.045,8.127
	c3.363,3.204,5.886,7.805,7.567,13.802l-14.781,3.578c-0.875-3.885-2.698-6.951-5.474-9.201c-2.774-2.249-6.146-3.373-10.114-3.373
	c-5.482,0-9.931,1.993-13.344,5.98c-3.414,3.987-5.12,10.445-5.12,19.374c0,9.474,1.681,16.222,5.045,20.242
	c3.362,4.021,7.734,6.031,13.116,6.031c3.968,0,7.382-1.277,10.241-3.833C310.872,106.895,312.924,102.874,314.169,97.387z"/>
<path id="I_Outline" fill="#BBAC91" d="M251.713,124.939V50.001h14.933v74.938H251.713z"/>
<path id="R_Outline_1_" fill="#BBAC91" d="M181.459,125.766V50.827h31.429c7.903,0,13.646,0.674,17.229,2.02
	c3.581,1.347,6.448,3.74,8.601,7.182c2.152,3.442,3.229,7.379,3.229,11.809c0,5.623-1.631,10.267-4.893,13.93
	c-3.263,3.663-8.14,5.973-14.63,6.926c3.229,1.909,5.894,4.005,7.995,6.288s4.936,6.338,8.501,12.166l9.03,14.619h-17.858
	l-10.796-16.307c-3.834-5.827-6.458-9.499-7.87-11.016c-1.412-1.516-2.909-2.556-4.49-3.118s-4.086-0.844-7.517-0.844h-3.026v31.284
	H181.459z M196.392,82.521h11.048c7.163,0,11.636-0.307,13.419-0.92c1.782-0.614,3.179-1.67,4.188-3.17
	c1.009-1.499,1.514-3.374,1.514-5.623c0-2.521-0.665-4.558-1.993-6.108c-1.329-1.55-3.203-2.53-5.625-2.939
	c-1.211-0.17-4.843-0.255-10.896-0.255h-11.653V82.521z"/>
<path id="R_Outline" fill="#BBAC91" d="M122.915,124.939V50.001h31.429c7.903,0,13.646,0.674,17.229,2.02
	c3.581,1.347,6.448,3.74,8.601,7.182c2.152,3.442,3.229,7.379,3.229,11.809c0,5.623-1.631,10.267-4.893,13.93
	c-3.263,3.663-8.14,5.973-14.63,6.926c3.229,1.909,5.894,4.005,7.995,6.288s4.936,6.338,8.501,12.166l9.03,14.619h-17.858
	l-10.796-16.307c-3.834-5.827-6.458-9.499-7.87-11.016c-1.412-1.516-2.909-2.556-4.49-3.118s-4.086-0.844-7.517-0.844h-3.026v31.284
	H122.915z M137.848,81.694h11.048c7.163,0,11.636-0.307,13.419-0.92c1.782-0.614,3.179-1.67,4.188-3.17
	c1.009-1.499,1.514-3.374,1.514-5.623c0-2.521-0.665-4.558-1.993-6.108c-1.329-1.55-3.203-2.53-5.625-2.939
	c-1.211-0.17-4.843-0.255-10.896-0.255h-11.653V81.694z"/>
<path id="U_Outline" fill="#BBAC91" d="M64.143,50.009h14.933v40.588c0,6.44,0.184,10.615,0.555,12.523
	c0.639,3.067,2.161,5.529,4.565,7.387c2.404,1.857,5.692,2.785,9.863,2.785c4.237,0,7.432-0.877,9.585-2.632
	c2.152-1.755,3.447-3.911,3.884-6.467c0.437-2.556,0.656-6.799,0.656-12.729V50.009h14.933v39.36c0,8.997-0.404,15.354-1.211,19.067
	c-0.808,3.715-2.296,6.85-4.465,9.405s-5.07,4.593-8.702,6.108c-3.632,1.517-8.375,2.275-14.226,2.275
	c-7.063,0-12.419-0.827-16.068-2.479c-3.649-1.652-6.533-3.8-8.652-6.44s-3.515-5.41-4.187-8.307
	c-0.976-4.294-1.463-10.633-1.463-19.017V50.009z"/>
<path id="C_Outline" fill="#BBAC91" d="M50.284,97.395l14.479,4.652c-2.22,8.179-5.911,14.254-11.073,18.223
	c-5.163,3.971-11.713,5.956-19.649,5.956c-9.821,0-17.893-3.399-24.215-10.198c-6.323-6.799-9.484-16.094-9.484-27.885
	c0-12.473,3.178-22.159,9.535-29.061c6.356-6.9,14.713-10.351,25.072-10.351c9.047,0,16.396,2.709,22.046,8.127
	c3.363,3.204,5.885,7.805,7.567,13.802L49.78,74.238c-0.875-3.885-2.699-6.951-5.474-9.201c-2.775-2.249-6.147-3.373-10.115-3.373
	c-5.482,0-9.931,1.993-13.344,5.98c-3.414,3.987-5.12,10.445-5.12,19.374c0,9.474,1.681,16.222,5.044,20.242
	c3.363,4.021,7.735,6.031,13.117,6.031c3.968,0,7.382-1.277,10.241-3.833C46.988,106.902,49.04,102.882,50.284,97.395z"/>
</svg>
